<?xml version="1.0" standalone="no"?>
<!DOCTYPE svg PUBLIC "-//W3C//DTD SVG 20010904//EN"
 "http://www.w3.org/TR/2001/REC-SVG-20010904/DTD/svg10.dtd">
<svg version="1.0" xmlns="http://www.w3.org/2000/svg"
 width="506.000000pt" height="506.000000pt" viewBox="0 0 506.000000 506.000000"
 preserveAspectRatio="xMidYMid meet">
<metadata>
Created by potrace 1.11, written by Peter Selinger 2001-2013
</metadata>
<g transform="translate(0.000000,506.000000) scale(0.100000,-0.100000)"
fill="#000000" stroke="none">
<path d="M5006 4872 c-16 -48 -114 -182 -183 -249 -173 -167 -395 -283 -783
-408 -80 -26 -155 -51 -168 -56 -18 -7 -29 -3 -60 24 -169 148 -420 300 -637
386 -97 38 -279 94 -340 105 -16 3 -45 10 -63 15 -18 5 -33 10 -35 9 -3 0 -96
13 -121 18 -95 17 -373 23 -501 10 -391 -39 -749 -167 -1072 -382 -67 -45
-128 -88 -136 -95 -8 -8 -44 -38 -80 -68 -37 -30 -109 -99 -162 -153 -411
-427 -645 -1011 -639 -1598 1 -134 16 -319 29 -360 2 -8 7 -33 11 -55 3 -22
12 -67 20 -100 8 -33 17 -70 20 -82 2 -12 18 -62 35 -110 17 -48 32 -92 33
-98 21 -69 128 -287 195 -394 171 -276 428 -539 697 -714 242 -156 579 -294
814 -331 19 -3 44 -8 55 -10 131 -27 418 -38 585 -23 307 28 594 111 860 250
583 304 1005 838 1166 1474 18 73 36 156 39 185 4 29 8 55 10 58 15 26 25 403
13 530 -9 96 -37 256 -57 332 l-18 67 51 22 c67 29 207 56 278 55 31 -1 54 2
50 5 -13 10 -137 57 -182 68 -75 19 -92 22 -173 26 -43 2 -80 5 -81 7 -1 1
-12 30 -25 63 -33 84 -131 280 -176 349 -20 32 -35 59 -33 60 1 2 48 31 103
66 238 151 443 324 542 455 56 74 117 198 139 285 26 97 22 319 -5 368 -7 13
-10 11 -15 -6z"/>
</g>
</svg>
